<svg width="901" height="497" viewBox="0 0 901 497" fill="none" xmlns="http://www.w3.org/2000/svg">
<path d="M540.297 176.39C528.857 217.976 537.99 262.283 537.99 262.283C537.99 262.283 574.418 235.072 594.448 197.532C611.627 165.34 601.085 144.671 586.107 138.838C571.2 132.994 549.987 141.122 540.286 176.378L540.297 176.39Z" fill="#0029FF"/>
<path d="M593.135 334.961C559.026 308.507 539.753 267.572 539.753 267.572C539.753 267.572 585.244 267.56 623.801 285.614C656.868 301.112 660.832 323.958 652.337 337.587C643.913 351.193 622.05 357.381 593.135 334.961Z" fill="#0029FF"/>
<path d="M480.266 284.3C479.793 282.88 480.585 281.295 482.005 280.822L676.092 216.295C677.512 215.822 679.097 216.615 679.571 218.035C680.044 219.454 679.251 221.04 677.831 221.513L483.744 286.039C482.301 286.56 480.715 285.767 480.266 284.3Z" fill="#0029FF"/>
<path d="M813.189 53.6426C832.686 63.3441 844.186 76.9852 846.493 93.099C847.061 96.9204 847.085 101.594 846.138 106.953C852.148 106.492 857.247 107.107 861.27 108.254C876.922 112.608 889.037 125.753 896.148 146.327C903.743 168.131 902.324 186.611 892.09 199.862C889.877 202.666 886.92 205.718 882.873 208.475C885.902 211.48 888.245 214.509 889.83 217.301C898.029 231.332 897.473 249.197 888.233 268.907C878.437 289.836 864.524 302.117 847.925 304.365C838.389 305.678 823.553 304.152 806.907 289.482C794.638 278.621 786.191 268.553 781.08 258.674C773.827 244.618 773.188 230.883 779.222 217.951C782.298 211.302 786.747 205.884 792.295 201.648C787.977 197.247 784.641 191.982 782.511 185.818C780.18 179.181 779.553 172.485 780.405 165.824C773.224 166.013 766.196 164.546 759.441 161.163C746.675 154.774 738.63 143.665 735.519 128.142C733.33 117.234 733.685 104.125 736.595 88.0117C740.499 66.1835 751.183 55.7604 759.453 50.8979C773.993 42.3441 792.52 43.3024 813.189 53.6426Z" fill="#FFD000"/>
<path d="M846.6 205.848C824.535 206.227 802.92 202.11 795.679 181.228C788.403 160.394 801.926 142.564 820.288 130.343C845.654 113.425 862.667 130.449 871.209 154.963C880.094 180.518 877.361 205.351 846.6 205.848Z" fill="#0029FF"/>
<path d="M820.527 131.077C805.194 146.93 787.01 159.317 767.11 149.663C747.187 140.068 744.158 117.933 748.488 96.2583C754.427 66.385 778.503 66.3259 801.905 77.6718C826.277 89.4318 841.929 108.941 820.527 131.077Z" fill="#0029FF"/>
<path d="M812.148 277.142C796.27 261.809 783.883 243.625 793.526 223.737C803.168 203.849 825.256 200.809 846.943 205.151C876.828 211.114 876.899 235.178 865.565 258.556C853.781 282.963 834.26 298.509 812.148 277.142Z" fill="#0029FF"/>
<path d="M706.793 272.765C747.078 292.925 796.058 276.646 816.206 236.397C836.354 196.148 820.04 147.167 779.755 127.007C739.471 106.847 690.49 123.127 670.342 163.388C650.194 203.637 666.509 252.617 706.793 272.777V272.765Z" fill="white"/>
<path d="M779.544 219.786C780.786 218.176 782.478 216.911 784.56 216.213C790.049 214.426 795.965 217.384 797.799 222.897C799.585 228.387 796.627 234.29 791.114 236.124C785.625 237.911 779.709 234.953 777.875 229.44C777.26 227.582 777.236 225.642 777.627 223.855C762.672 218.484 728.493 211.918 671.349 230.753C670.225 231.12 668.995 230.504 668.616 229.38C668.238 228.268 668.865 227.026 669.989 226.647C729.049 207.221 764.021 214.047 779.555 219.774L779.544 219.786Z" fill="#0029FF"/>
<path d="M759.088 157.756C761.052 158.3 763.217 158.335 765.299 157.637C770.788 155.851 773.77 149.9 771.983 144.41C770.197 138.921 764.234 135.939 758.744 137.726C753.255 139.512 750.273 145.463 752.06 150.953C752.687 152.822 753.823 154.384 755.219 155.579C746.393 168.735 722.79 194.29 665.646 213.125C664.534 213.491 663.907 214.734 664.274 215.858C664.641 216.97 665.883 217.597 667.007 217.23C725.961 197.874 749.99 171.598 759.088 157.779V157.756Z" fill="#0029FF"/>
<path d="M790.239 170.865C795.728 169.078 801.644 172.036 803.477 177.549C805.264 183.039 802.306 188.942 796.793 190.776C792.025 192.362 786.902 190.303 784.477 186.103L669.196 224.009C668.072 224.376 666.841 223.761 666.463 222.637C666.084 221.525 666.711 220.283 667.823 219.904L783.104 181.998C782.56 177.135 785.412 172.415 790.239 170.853V170.865Z" fill="#0029FF"/>
<path d="M658.653 222.793L658.675 222.97L658.629 222.803L648.637 225.557L644.817 214.569C644.817 214.568 644.817 214.568 644.817 214.568C621.197 146.604 652.54 74.2937 713.788 52.9734L713.798 52.9698L713.808 52.9661C716.049 52.1699 718.332 51.4618 720.835 50.7843L720.843 50.7821L720.851 50.78L730.831 48.0269L734.651 59.0143C734.651 59.0145 734.651 59.0147 734.651 59.0148C758.271 126.979 726.928 199.289 665.68 220.61L665.67 220.613L665.66 220.617C663.407 221.417 661.06 222.157 658.653 222.793Z" fill="#FFD000" stroke="white" stroke-width="6.77416"/>
<path d="M707.647 87.2432C709.611 86.5452 711.575 85.9773 713.586 85.4331C733.249 142.092 707.351 202.513 655.756 220.46C653.793 221.158 651.805 221.773 649.817 222.27C630.154 165.612 656.029 105.238 707.659 87.2432H707.647Z" fill="#0029FF"/>
<path d="M659.412 227.302L650.34 230.797L653.816 241.903C653.816 241.904 653.816 241.904 653.816 241.904C675.319 310.581 743.507 350.158 805.453 330.933L805.454 330.933C807.739 330.224 809.998 329.433 812.397 328.511C812.397 328.511 812.398 328.51 812.398 328.51L822.059 324.789L818.593 313.683L659.412 227.302ZM659.412 227.302H659.423L660.01 227.076C662.406 226.155 664.749 225.34 666.956 224.653L659.412 227.302ZM666.957 224.653C728.902 205.429 797.088 245.005 818.592 313.68L666.957 224.653Z" fill="#FFD000" stroke="white" stroke-width="6.77416"/>
<path d="M780.147 307.075C782.135 306.46 784.099 305.762 786.015 305.04C768.115 247.837 711.374 214.592 659.152 230.801C657.164 231.416 655.2 232.114 653.283 232.836C671.136 290.015 727.925 323.284 780.147 307.087V307.075Z" fill="#0029FF"/>
<path d="M360.654 176.39C372.094 217.976 362.961 262.283 362.961 262.283C362.961 262.283 326.533 235.072 306.503 197.532C289.325 165.34 299.854 144.671 314.844 138.838C329.751 132.994 350.964 141.122 360.666 176.378L360.654 176.39Z" fill="#0029FF"/>
<path d="M307.817 334.961C341.926 308.507 361.198 267.572 361.198 267.572C361.198 267.572 315.708 267.56 277.151 285.614C244.084 301.112 240.12 323.958 248.615 337.587C257.038 351.193 278.902 357.381 307.817 334.961Z" fill="#0029FF"/>
<path d="M420.697 284.3C421.17 282.88 420.378 281.295 418.958 280.822L224.871 216.295C223.451 215.822 221.866 216.615 221.392 218.035C220.919 219.454 221.712 221.04 223.131 221.513L417.219 286.039C418.662 286.56 420.247 285.767 420.697 284.3Z" fill="#0029FF"/>
<path d="M87.7735 53.6426C68.2761 63.3441 56.7763 76.9852 54.4693 93.099C53.9014 96.9204 53.8778 101.594 54.8242 106.953C48.8141 106.492 43.7149 107.107 39.6924 108.254C24.04 112.608 11.9251 125.753 4.81466 146.327C-2.78084 168.131 -1.36112 186.611 8.87268 199.862C11.0851 202.666 14.0428 205.718 18.089 208.475C15.0603 211.48 12.7296 214.509 11.1324 217.301C2.93353 231.332 3.48959 249.197 12.7296 268.907C22.5256 289.836 36.4389 302.117 53.0378 304.365C62.5735 305.678 77.4096 304.152 94.0558 289.482C106.325 278.621 114.772 268.553 119.883 258.674C127.135 244.618 127.774 230.883 121.74 217.951C118.652 211.302 114.216 205.884 108.667 201.648C112.985 197.247 116.322 191.982 118.451 185.818C120.782 179.193 121.409 172.485 120.557 165.824C127.739 166.013 134.766 164.546 141.522 161.163C154.287 154.774 162.344 143.665 165.444 128.142C167.633 117.234 167.278 104.125 164.367 88.0117C160.463 66.1835 149.78 55.7604 141.51 50.8979C126.97 42.3441 108.442 43.3024 87.7735 53.6426Z" fill="#FFD000"/>
<path d="M54.3642 205.848C76.429 206.227 98.0442 202.121 105.285 181.228C112.561 160.394 99.038 142.564 80.6763 130.343C55.3107 113.425 38.2977 130.449 29.7557 154.963C20.8706 180.518 23.6036 205.351 54.3642 205.848Z" fill="#0029FF"/>
<path d="M80.4269 131.077C95.7598 146.93 113.944 159.317 133.844 149.663C153.767 140.068 156.796 117.933 152.466 96.2583C146.527 66.385 122.451 66.3259 99.0489 77.6718C74.677 89.4318 59.0365 108.941 80.4269 131.077Z" fill="#0029FF"/>
<path d="M88.8032 277.142C104.68 261.81 117.067 243.625 107.425 223.737C97.7829 203.849 75.6945 200.809 54.0083 205.151C24.1232 211.114 24.0522 235.178 35.3863 258.556C47.17 282.963 66.6911 298.521 88.8032 277.142Z" fill="#0029FF"/>
<path d="M194.169 272.765C153.884 292.925 104.904 276.646 84.7441 236.397C64.596 196.148 80.9109 147.167 121.195 127.007C161.48 106.847 210.46 123.127 230.608 163.388C250.757 203.637 234.442 252.617 194.157 272.777L194.169 272.765Z" fill="white"/>
<path d="M121.41 219.786C120.168 218.176 118.476 216.911 116.394 216.213C110.904 214.426 104.989 217.384 103.155 222.897C101.368 228.387 104.326 234.29 109.839 236.124C115.329 237.911 121.244 234.953 123.078 229.44C123.693 227.582 123.729 225.642 123.327 223.855C138.281 218.484 172.461 211.918 229.604 230.753C230.728 231.12 231.97 230.504 232.337 229.38C232.704 228.268 232.089 227.026 230.977 226.647C171.916 207.221 136.944 214.047 121.41 219.774V219.786Z" fill="#0029FF"/>
<path d="M141.878 157.756C139.914 158.3 137.749 158.335 135.667 157.637C130.177 155.851 127.196 149.9 128.982 144.41C130.769 138.921 136.732 135.939 142.221 137.726C147.711 139.512 150.692 145.463 148.906 150.953C148.29 152.822 147.143 154.384 145.747 155.579C154.573 168.735 178.176 194.29 235.319 213.125C236.443 213.491 237.058 214.734 236.68 215.858C236.313 216.97 235.071 217.597 233.947 217.23C174.993 197.874 150.964 171.598 141.866 157.779L141.878 157.756Z" fill="#0029FF"/>
<path d="M110.724 170.865C105.234 169.078 99.319 172.036 97.4852 177.549C95.6987 183.039 98.6564 188.942 104.17 190.776C108.938 192.362 114.06 190.303 116.498 186.103L231.779 224.009C232.903 224.376 234.133 223.761 234.512 222.637C234.89 221.525 234.263 220.283 233.151 219.904L117.87 181.998C118.414 177.135 115.563 172.415 110.736 170.853L110.724 170.865Z" fill="#0029FF"/>
<path d="M242.336 222.803L242.319 222.798L242.301 222.793C239.894 222.157 237.547 221.417 235.294 220.617L235.283 220.613L235.273 220.61C174.026 199.289 142.683 126.979 166.302 59.0148C166.302 59.0147 166.302 59.0145 166.302 59.0143L170.123 48.0269L180.102 50.78L180.11 50.7821L180.118 50.7843C182.622 51.4618 184.904 52.1699 187.145 52.9661L187.155 52.9698L187.166 52.9734C248.413 74.2937 279.756 146.604 256.137 214.568C256.137 214.568 256.137 214.568 256.137 214.569L252.316 225.556L242.336 222.803Z" fill="#FFD000" stroke="white" stroke-width="6.77416"/>
<path d="M193.304 87.2432C191.341 86.5452 189.377 85.9773 187.365 85.4331C167.702 142.092 193.6 202.513 245.195 220.46C247.159 221.158 249.147 221.773 251.134 222.27C270.797 165.612 244.923 105.238 193.293 87.2432H193.304Z" fill="#0029FF"/>
<path d="M95.4863 330.933L95.4852 330.933C93.1993 330.224 90.9399 329.433 88.5405 328.51L78.882 324.79L82.3581 313.683C82.3581 313.683 82.3581 313.683 82.3582 313.683C103.861 245.006 172.05 205.429 233.995 224.653C236.202 225.34 238.545 226.155 240.941 227.076L250.599 230.797L247.123 241.903C247.123 241.904 247.123 241.904 247.123 241.904C225.62 310.581 157.432 350.158 95.4863 330.933Z" fill="#FFD000" stroke="white" stroke-width="6.77416"/>
<path d="M120.804 307.075C118.816 306.46 116.852 305.762 114.936 305.04C132.836 247.837 189.577 214.592 241.799 230.801C243.787 231.416 245.751 232.114 247.668 232.836C229.815 290.015 173.026 323.284 120.804 307.087V307.075Z" fill="#0029FF"/>
<path d="M450.583 287.802C449.08 287.802 447.803 286.844 447.803 285.625V75.3888C447.803 74.2175 449.021 73.2119 450.583 73.2119C452.145 73.2119 453.363 74.1702 453.363 75.3888V285.625C453.304 286.844 452.085 287.802 450.583 287.802Z" fill="#0029FF"/>
<path d="M449.517 0.155762L457.881 4.5214C459.514 5.3614 460.969 6.17773 462.377 7.02956C500.627 29.8515 501.656 68.2313 458.544 92.6031L449.67 97.7496L440.525 92.6031C397.413 68.2313 398.442 29.8515 436.68 7.02956C438.088 6.18956 439.543 5.37323 441.176 4.5214L449.517 0.155762Z" fill="#FFD000"/>
<path d="M456.407 138.168L456.392 138.172L456.377 138.176L451.803 139.438L449.995 134.248C449.995 134.247 449.995 134.247 449.995 134.246C436.374 95.0676 454.501 53.6133 489.507 41.4264L489.519 41.4222L489.531 41.418C490.811 40.9617 492.106 40.5524 493.522 40.1761L493.538 40.1719L493.554 40.1676L498.128 38.9052L499.936 44.096C513.558 83.275 495.431 124.73 460.424 136.917L460.412 136.921L460.4 136.926C459.123 137.381 457.78 137.803 456.407 138.168Z" fill="#FFD000" stroke="white" stroke-width="6.77416"/>
<path d="M444.741 138.299L444.759 138.168C443.386 137.803 442.043 137.381 440.766 136.926L440.754 136.921L440.742 136.917C405.735 124.73 387.608 83.2761 401.229 44.0977C401.229 44.0973 401.229 44.097 401.23 44.0966C401.23 44.0964 401.23 44.0962 401.23 44.096L403.037 38.9052L407.612 40.1676L407.627 40.1719L407.643 40.1761C409.06 40.5524 410.355 40.9617 411.634 41.418L411.646 41.4222L411.658 41.4264C446.665 53.6132 464.781 95.0679 451.17 134.248C451.17 134.248 451.17 134.248 451.17 134.249L449.362 139.44L444.775 138.176L444.741 138.299Z" fill="#FFD000" stroke="white" stroke-width="6.77416"/>
<path d="M424.814 113.615H405.636C405.636 130.675 419.466 144.494 436.515 144.494H446.051C451.753 129.598 440.762 113.615 424.814 113.615Z" fill="#0029FF"/>
<path d="M476.115 113.615H495.293C495.293 130.675 481.463 144.494 464.414 144.494H454.878C449.176 129.598 460.167 113.615 476.115 113.615Z" fill="#0029FF"/>
<path d="M450.583 166.653C456.842 166.653 461.917 158.395 461.917 148.221C461.917 138.046 456.842 129.788 450.583 129.788C444.324 129.788 439.249 138.046 439.249 148.221C439.249 158.395 444.324 166.653 450.583 166.653Z" fill="#0029FF"/>
<path d="M449.734 345.812C449.734 345.812 417.009 322.612 400.315 289.069C386.134 260.649 396.205 242.845 410.288 237.722C423.924 232.735 443.052 239.319 450.474 268.304C457.915 239.338 477.044 232.735 490.66 237.722C504.646 242.845 514.717 260.649 500.633 289.069C483.939 322.612 451.214 345.812 451.214 345.812C451.214 345.812 450.922 344.585 450.474 342.345C450.026 344.565 449.734 345.812 449.734 345.812Z" fill="#FFD000"/>
<path fill-rule="evenodd" clip-rule="evenodd" d="M392.251 433.397C392.251 424.366 393.791 416.238 396.872 409.013C399.953 401.682 404.203 395.467 409.622 390.367C415.041 385.267 421.415 381.336 428.746 378.573C436.184 375.811 444.258 374.43 452.971 374.43C461.683 374.43 469.705 375.811 477.036 378.573C484.473 381.336 490.901 385.267 496.32 390.367C501.738 395.467 505.988 401.682 509.069 409.013C512.15 416.238 513.691 424.366 513.691 433.397C513.691 442.534 512.15 450.768 509.069 458.099C505.988 465.324 501.738 471.486 496.32 476.586C490.901 481.686 484.473 485.617 477.036 488.38C469.705 491.142 461.683 492.523 452.971 492.523C444.258 492.523 436.184 491.142 428.746 488.38C421.415 485.617 415.041 481.686 409.622 476.586C404.203 471.486 399.953 465.324 396.872 458.099C393.791 450.768 392.251 442.534 392.251 433.397ZM451.058 391.004C441.284 391.004 436.396 402.266 436.396 424.791C436.396 441.79 437.99 454.54 441.177 463.04C444.471 471.539 448.933 475.789 454.564 475.789C464.339 475.789 469.227 464.527 469.227 442.003C469.227 425.003 467.58 412.254 464.286 403.754C461.099 395.254 456.689 391.004 451.058 391.004ZM0 377.776V489.336H40.9582V470.69C41.8082 470.796 42.5519 470.849 43.1894 470.849H45.58C53.4423 470.849 61.1452 469.946 68.6887 468.14C76.2323 466.333 82.9258 463.465 88.7694 459.534C94.7192 455.602 99.4472 450.609 102.953 444.553C106.566 438.39 108.372 431.006 108.372 422.4C108.372 413.582 106.778 406.304 103.591 400.566C100.403 394.829 95.9942 390.261 90.3631 386.861C84.732 383.461 77.9853 381.123 70.123 379.848C62.2608 378.467 53.7079 377.776 44.4644 377.776H0ZM64.3857 447.9C61.3045 452.574 56.8953 454.912 51.158 454.912C49.5642 454.912 47.8112 454.699 45.8987 454.274C43.9863 453.849 42.3394 453.052 40.9582 451.884V392.917H43.0301C51.6361 392.917 58.1171 396.051 62.4733 402.32C66.8294 408.588 69.0075 417.407 69.0075 428.775C69.0075 436.744 67.4669 443.118 64.3857 447.9ZM132.734 476.905H183.255L188.992 489.336H236.963L185.645 377.776H137.834L148.512 401.204L107.713 489.336H126.997L132.734 476.905ZM175.286 459.693H140.703L158.074 422.081L175.286 459.693ZM532.758 411.244C529.783 418.469 528.296 426.119 528.296 434.194C528.296 442.481 529.837 450.184 532.918 457.302C536.105 464.421 540.408 470.583 545.827 475.789C551.245 480.995 557.567 485.086 564.792 488.061C572.017 491.036 579.773 492.523 588.06 492.523C596.347 492.523 602.775 491.992 607.344 490.93C611.912 489.973 615.525 488.911 618.181 487.742L616.428 470.69C613.559 471.539 610.956 472.23 608.619 472.761C606.388 473.293 603.891 473.558 601.128 473.558C596.56 473.558 592.522 472.496 589.016 470.371C585.51 468.14 582.588 465.165 580.251 461.446C577.913 457.727 576.16 453.318 574.992 448.218C573.823 443.118 573.238 437.594 573.238 431.644C573.238 418.257 575.842 408.694 581.048 402.957C586.36 397.113 594.328 394.192 604.953 394.192C606.122 394.192 607.291 394.298 608.459 394.51C609.734 394.723 611.275 394.935 613.081 395.148L615.472 377.298C611.328 376.342 607.131 375.652 602.881 375.227C598.738 374.695 593.957 374.43 588.538 374.43C579.72 374.43 571.592 376.023 564.154 379.211C556.823 382.398 550.502 386.754 545.189 392.279C539.877 397.698 535.733 404.019 532.758 411.244ZM755.454 377.776V489.336H711.786V460.968H682.781V489.336H639.113V377.776H682.781V443.756H711.786V377.776H755.454ZM796.734 476.905H847.255L852.992 489.336H900.962L849.645 377.776H801.834L812.512 401.204L771.713 489.336H790.997L796.734 476.905ZM839.286 459.693H804.703L822.074 422.081L839.286 459.693ZM285.072 379.702L261.87 469.876H252.318H247.006V496.999H262.957H281.849H287.161V485.727H334.838V496.999H340.15H363.006H374.994V475.188V469.876H366.947V379.702H285.072ZM300.377 398.023L283.522 469.876H324.678V397.637H300.863C300.631 397.637 300.43 397.797 300.377 398.023Z" fill="#0029FF"/>
</svg>
